# xmcd
#
# Track frame offsets: 
#        150
#        14743
#        32698
#        53031
#        74084
#        93708
#        122903
#        144011
#        163362
#
# Disc length: 2441 seconds
#
# Revision: 0
# Processed by: cddbd v1.5.2PL0 Copyright (c) Steve Scherf et al.
# Submitted via: ExactAudioCopy v1.1
#
DISCID=84098709
DTITLE=Bazart - 2 Deluxe - CD 2
DYEAR=2018
DGENRE=Pop
TTITLE0=Maanlicht
TTITLE1=Grip (Omarm Me) (Akoestisch)
TTITLE2=Ademnood (Daft Sessie)
TTITLE3=Zonde (Daft Sessie)
TTITLE4=Niets Is Zeker (Daft Sessie)
TTITLE5=Het Doet Me Toch Iets (Daft Sessie)
TTITLE6=Vijf Dagen (Daft Sessie)
TTITLE7=Bazart Feat. Eefje De Visser - Onder Ons (Live and Akoestisch - 
TTITLE7=Radio 1)
TTITLE8=Het Doet Me Toch Iets (Live and Akoestisch - Radio 1)
EXTD=
EXTT0=
EXTT1=
EXTT2=
EXTT3=
EXTT4=
EXTT5=
EXTT6=
EXTT7=
EXTT8=
PLAYORDER=
